# xmcd CD database file
#
# Track frame offsets:
#	150
#	15147
#	27957
#	41757
#	53445
#	65120
#	77040
#	91992
#	101085
#	112850
#	123057
#	137647
#	150592
#	162422
#	172290
#	184022
#	194872
#	213292
#
# Disc length: 3017 seconds
#
# Revision: 0
# Processed by: cddbd v1.5.1PL0 Copyright (c) Steve Scherf et al.
# Submitted via: Feurio! 1.67 - http://www.feurio.com
#
DISCID=ed0bc712
DTITLE=Die fidelen Inntaler - Jubiläumsausgabe CD 2
DYEAR=1900
DGENRE=
TTITLE0=Jubiläums Polka
TTITLE1=Inntaler Walzer
TTITLE2=Breinössl Marsch
TTITLE3=Stubaier Ländler
TTITLE4=Heuschober Polka
TTITLE5=Mit Humor (Boarischer)
TTITLE6=Träumereien (Walzer)
TTITLE7=Trompeten Polka
TTITLE8=Lustige Oberperfer
TTITLE9=Im Zillergrund
TTITLE10=Bergland Polka
TTITLE11=Im Stoanergrabn
TTITLE12=Lustige Buam
TTITLE13=Patscherdörfl Marsch
TTITLE14=Immer Lustig
TTITLE15=Frohe Fahrt
TTITLE16=Blumen aus Tirol
TTITLE17=Toni Köchl Marsch
EXTD=
EXTT0=
EXTT1=
EXTT2=
EXTT3=
EXTT4=
EXTT5=
EXTT6=
EXTT7=
EXTT8=
EXTT9=
EXTT10=
EXTT11=
EXTT12=
EXTT13=
EXTT14=
EXTT15=
EXTT16=
EXTT17=
PLAYORDER=
